<svg version="1.2" baseProfile="tiny-ps" xmlns="http://www.w3.org/2000/svg" viewBox="0 0 578 578" width="578" height="578"><title>lmao</title><style>tspan { white-space:pre }.shp0 { fill: #ffffff } </style><path class="shp0" d="M214.25 3.05C218.51 3.02 224.14 3.56 226.75 4.24C229.36 4.92 232.06 6.05 232.75 6.74C233.44 7.43 234.34 7.99 234.75 7.97C235.16 7.96 237.75 10.13 240.5 12.81C243.25 15.49 246.52 19.66 247.76 22.09C249 24.52 250.45 28.52 250.98 31C251.52 33.48 251.96 37.86 251.98 40.75C251.99 43.64 250.97 49.26 249.72 53.25C248.29 57.8 246.25 61.8 244.23 64C242.46 65.92 241.01 68.29 241 69.25C241 70.21 241.73 73.14 242.63 75.75C243.53 78.36 245.28 84.78 246.53 90C247.78 95.22 250.62 107.15 252.85 116.5C255.08 125.85 257.49 134.04 258.2 134.7C258.92 135.35 261.75 136.14 264.5 136.43C267.25 136.73 276.25 138.09 284.5 139.45C292.75 140.81 302.65 142.44 306.5 143.08C310.35 143.72 315.3 144.37 317.5 144.53C319.7 144.69 322.06 144.86 322.75 144.91C323.7 144.98 323.88 147.66 323.47 156.25C323.18 162.44 322.59 168.85 321.36 173.5L282.93 178.69C261.79 181.54 240 184.63 234.5 185.54C229 186.46 223.82 187.46 223 187.76C222.18 188.07 221.05 188.24 220.5 188.15C219.95 188.06 207.24 189.56 192.25 191.49C177.26 193.42 164.21 195.39 163.25 195.88C162.29 196.36 158.57 197.07 148.5 198.14L144.58 187.82C142.42 182.14 140.07 176.6 139.36 175.5C138.19 173.7 138.39 173.3 141.28 171.58C143.05 170.53 148.32 167.72 153 165.34C157.68 162.96 170.72 156.26 182 150.45C193.28 144.64 202.72 139.65 203 139.37C203.28 139.08 202.91 126.85 202.18 112.18C201.45 97.5 200.44 83.47 199.94 81C199.22 77.44 198.24 75.95 195.26 73.86C193.19 72.41 190 69.71 188.16 67.86C186.33 66.01 183.51 61.8 181.91 58.5C179.86 54.27 178.81 50.29 178.37 45C178 40.62 178.21 35.31 178.87 32.25C179.49 29.36 181.01 24.89 182.25 22.32C183.49 19.74 186.08 16.03 188.02 14.07C189.96 12.11 192.77 9.71 194.27 8.75C195.77 7.79 199.14 6.12 201.75 5.05C204.98 3.73 208.97 3.09 214.25 3.05ZM286.06 200.73C286.42 201.16 287.26 208.25 287.93 216.5C288.59 224.75 289.52 232.4 289.99 233.5C290.46 234.6 292.45 252.15 294.42 272.5C296.39 292.85 298.52 311.98 300.3 320.5L294.15 329.25C290.77 334.06 288.11 338.11 288.24 338.25C288.37 338.39 287.26 340.07 285.77 342C284.28 343.93 283.04 346.06 283.03 346.75C283.01 347.44 282.63 348.11 282.18 348.25C281.73 348.39 277.74 353.9 273.3 360.5C268.87 367.1 262.18 377.23 258.44 383C254.71 388.77 249.93 396.09 247.83 399.25C245.72 402.41 244 405.23 244 405.5C244 405.77 242.48 407.91 240.62 410.25C238.76 412.59 236.96 415.51 236.62 416.75C236.28 417.99 235.55 419 235 419C234.45 419 233.79 417.31 233.52 415.25C233.26 413.19 232.53 407.68 231.9 403C231.26 398.32 230.42 394.05 230.02 393.5C229.61 392.95 227.1 376.98 224.43 358C221.75 339.02 219.2 323.27 218.76 323C218.31 322.73 218.23 321.6 218.59 320.5C218.94 319.4 218.73 317.38 218.13 316C217.53 314.63 214.56 296.29 211.52 275.25C208.48 254.21 205.79 236.66 205.53 236.25C205.27 235.84 204.35 230.78 203.47 225C201.95 214.98 201.96 214.44 203.69 213.28C204.68 212.61 205.84 212.27 206.25 212.53C206.66 212.79 214.54 211.94 223.75 210.65C232.96 209.35 241.06 208 241.75 207.65C242.44 207.29 252.34 205.63 263.75 203.94C275.16 202.26 284.7 200.68 284.95 200.43C285.2 200.17 285.7 200.31 286.06 200.73ZM382.75 336.1C383.99 336.04 384.79 336.34 384.54 336.75C384.29 337.16 386.56 344.93 389.59 354C392.62 363.07 396.26 374.1 397.68 378.5C399.1 382.9 400.65 387.18 401.13 388C401.6 388.82 404.97 398.5 408.62 409.5C412.26 420.5 415.73 430.4 416.32 431.5C416.92 432.6 417.52 434.85 417.64 436.5C417.85 439.29 417.29 439.83 409.68 444.07C405.18 446.59 385.61 456.49 330.9 483.5L331.57 490C331.94 493.57 332.3 496.64 332.37 496.81C332.44 496.98 339.48 495.97 348 494.57C356.52 493.16 369.57 490.91 377 489.56C384.43 488.21 391.4 486.92 392.5 486.68C393.6 486.45 396.75 485.92 399.5 485.51C402.25 485.1 405.18 484.4 406 483.96C406.82 483.52 410.88 482.65 415 482.02C419.13 481.39 425.88 480.26 430 479.5C434.13 478.74 445.82 476.68 456 474.93C466.18 473.18 475.08 471.24 475.79 470.62C476.64 469.88 477.35 469.84 477.88 470.5C478.32 471.05 479.69 473.98 480.94 477C482.19 480.02 483.79 483.85 484.51 485.5C485.22 487.15 487.61 492.55 489.82 497.5C492.03 502.45 494.6 508.3 495.52 510.5C496.45 512.7 499.14 519.23 501.52 525C503.89 530.77 508.05 540.23 510.76 546C513.47 551.77 516.6 558.52 517.71 561C518.83 563.48 520.02 566.51 521 570L504.75 570.06C495.81 570.1 407.73 570.34 309 570.59C210.27 570.85 128.15 571.02 126.5 570.98C124.85 570.93 123.39 570.7 123.25 570.45C123.11 570.2 123.79 568.54 124.75 566.75C125.71 564.96 126.81 563.27 127.2 563C127.58 562.73 129.76 558.9 132.04 554.5C134.31 550.1 136.76 545.83 137.46 545C138.17 544.17 141.12 539.67 144.02 535C146.93 530.33 149.81 525.6 150.44 524.5C151.07 523.4 154.15 518.56 157.29 513.75C160.43 508.94 163.4 503.99 163.88 502.75C164.37 501.51 167 497.13 169.74 493C172.47 488.88 178.18 479.65 182.41 472.5C186.65 465.35 190.47 458.82 190.91 458C191.36 457.16 199.58 454 209.61 450.82C219.45 447.7 228.4 444.84 229.5 444.47C230.6 444.1 231.95 443.67 232.5 443.51C233.05 443.35 236.2 442.44 239.5 441.47C242.8 440.51 246.85 439.08 248.5 438.29C250.5 437.34 253.28 433.96 256.83 428.18C259.76 423.41 266.39 412.75 271.57 404.5C276.74 396.25 280.97 389.27 280.96 389C280.95 388.73 283.56 384.23 286.77 379C289.98 373.77 294.38 366.71 300.5 357.08L312 354.35C318.32 352.84 323.73 351.31 324 350.95C324.27 350.58 337.1 347.11 352.5 343.24C367.9 339.37 381.51 336.15 382.75 336.1Z" /></svg>